<svg width="271" height="83" viewBox="0 0 271 83" fill="none" xmlns="http://www.w3.org/2000/svg">
<path d="M110.408 24.664V28.28H104.456V47H99.976V28.28H94.024V24.664H110.408ZM118.157 32.024C118.733 31.0853 119.479 30.3493 120.397 29.816C121.335 29.2827 122.402 29.016 123.597 29.016V33.72H122.413C121.005 33.72 119.938 34.0507 119.213 34.712C118.509 35.3733 118.157 36.5253 118.157 38.168V47H113.677V29.272H118.157V32.024ZM125.462 38.072C125.462 36.28 125.814 34.6907 126.518 33.304C127.244 31.9173 128.214 30.8507 129.43 30.104C130.668 29.3573 132.044 28.984 133.558 28.984C134.881 28.984 136.033 29.2507 137.014 29.784C138.017 30.3173 138.817 30.9893 139.414 31.8V29.272H143.926V47H139.414V44.408C138.838 45.24 138.038 45.9333 137.014 46.488C136.012 47.0213 134.849 47.288 133.526 47.288C132.033 47.288 130.668 46.904 129.43 46.136C128.214 45.368 127.244 44.2907 126.518 42.904C125.814 41.496 125.462 39.8853 125.462 38.072ZM139.414 38.136C139.414 37.048 139.201 36.12 138.774 35.352C138.348 34.5627 137.772 33.9653 137.046 33.56C136.321 33.1333 135.542 32.92 134.71 32.92C133.878 32.92 133.11 33.1227 132.406 33.528C131.702 33.9333 131.126 34.5307 130.678 35.32C130.252 36.088 130.038 37.0053 130.038 38.072C130.038 39.1387 130.252 40.0773 130.678 40.888C131.126 41.6773 131.702 42.2853 132.406 42.712C133.132 43.1387 133.9 43.352 134.71 43.352C135.542 43.352 136.321 43.1493 137.046 42.744C137.772 42.3173 138.348 41.72 138.774 40.952C139.201 40.1627 139.414 39.224 139.414 38.136ZM147.15 38.072C147.15 36.28 147.502 34.6907 148.206 33.304C148.931 31.9173 149.912 30.8507 151.15 30.104C152.387 29.3573 153.763 28.984 155.278 28.984C156.43 28.984 157.528 29.24 158.574 29.752C159.619 30.2427 160.451 30.904 161.07 31.736V23.32H165.614V47H161.07V44.376C160.515 45.2507 159.736 45.9547 158.734 46.488C157.731 47.0213 156.568 47.288 155.246 47.288C153.752 47.288 152.387 46.904 151.15 46.136C149.912 45.368 148.931 44.2907 148.206 42.904C147.502 41.496 147.15 39.8853 147.15 38.072ZM161.102 38.136C161.102 37.048 160.888 36.12 160.462 35.352C160.035 34.5627 159.459 33.9653 158.734 33.56C158.008 33.1333 157.23 32.92 156.398 32.92C155.566 32.92 154.798 33.1227 154.094 33.528C153.39 33.9333 152.814 34.5307 152.366 35.32C151.939 36.088 151.726 37.0053 151.726 38.072C151.726 39.1387 151.939 40.0773 152.366 40.888C152.814 41.6773 153.39 42.2853 154.094 42.712C154.819 43.1387 155.587 43.352 156.398 43.352C157.23 43.352 158.008 43.1493 158.734 42.744C159.459 42.3173 160.035 41.72 160.462 40.952C160.888 40.1627 161.102 39.224 161.102 38.136ZM186.469 37.752C186.469 38.392 186.427 38.968 186.341 39.48H173.381C173.488 40.76 173.936 41.7627 174.725 42.488C175.515 43.2133 176.485 43.576 177.637 43.576C179.301 43.576 180.485 42.8613 181.189 41.432H186.021C185.509 43.1387 184.528 44.5467 183.077 45.656C181.627 46.744 179.845 47.288 177.733 47.288C176.027 47.288 174.491 46.9147 173.125 46.168C171.781 45.4 170.725 44.3227 169.957 42.936C169.211 41.5493 168.837 39.9493 168.837 38.136C168.837 36.3013 169.211 34.6907 169.957 33.304C170.704 31.9173 171.749 30.8507 173.093 30.104C174.437 29.3573 175.984 28.984 177.733 28.984C179.419 28.984 180.923 29.3467 182.245 30.072C183.589 30.7973 184.624 31.832 185.349 33.176C186.096 34.4987 186.469 36.024 186.469 37.752ZM181.829 36.472C181.808 35.32 181.392 34.4027 180.581 33.72C179.771 33.016 178.779 32.664 177.605 32.664C176.496 32.664 175.557 33.0053 174.789 33.688C174.043 34.3493 173.584 35.2773 173.413 36.472H181.829ZM214.091 24.664V47H209.611V32.472L203.627 47H200.235L194.219 32.472V47H189.739V24.664H194.827L201.931 41.272L209.035 24.664H214.091ZM217.368 38.072C217.368 36.28 217.72 34.6907 218.424 33.304C219.15 31.9173 220.121 30.8507 221.337 30.104C222.574 29.3573 223.95 28.984 225.465 28.984C226.787 28.984 227.939 29.2507 228.921 29.784C229.923 30.3173 230.723 30.9893 231.321 31.8V29.272H235.833V47H231.321V44.408C230.745 45.24 229.945 45.9333 228.921 46.488C227.918 47.0213 226.755 47.288 225.433 47.288C223.939 47.288 222.574 46.904 221.337 46.136C220.121 45.368 219.15 44.2907 218.424 42.904C217.72 41.496 217.368 39.8853 217.368 38.072ZM231.321 38.136C231.321 37.048 231.107 36.12 230.681 35.352C230.254 34.5627 229.678 33.9653 228.953 33.56C228.227 33.1333 227.449 32.92 226.617 32.92C225.785 32.92 225.017 33.1227 224.312 33.528C223.609 33.9333 223.033 34.5307 222.585 35.32C222.158 36.088 221.945 37.0053 221.945 38.072C221.945 39.1387 222.158 40.0773 222.585 40.888C223.033 41.6773 223.609 42.2853 224.312 42.712C225.038 43.1387 225.806 43.352 226.617 43.352C227.449 43.352 228.227 43.1493 228.953 42.744C229.678 42.3173 230.254 41.72 230.681 40.952C231.107 40.1627 231.321 39.224 231.321 38.136ZM245.424 32.952V41.528C245.424 42.1253 245.563 42.5627 245.84 42.84C246.139 43.096 246.629 43.224 247.312 43.224H249.392V47H246.576C242.8 47 240.912 45.1653 240.912 41.496V32.952H238.8V29.272H240.912V24.888H245.424V29.272H249.392V32.952H245.424ZM269.094 37.752C269.094 38.392 269.052 38.968 268.966 39.48H256.006C256.113 40.76 256.561 41.7627 257.35 42.488C258.14 43.2133 259.11 43.576 260.262 43.576C261.926 43.576 263.11 42.8613 263.814 41.432H268.646C268.134 43.1387 267.153 44.5467 265.702 45.656C264.252 46.744 262.47 47.288 260.358 47.288C258.652 47.288 257.116 46.9147 255.75 46.168C254.406 45.4 253.35 44.3227 252.582 42.936C251.836 41.5493 251.462 39.9493 251.462 38.136C251.462 36.3013 251.836 34.6907 252.582 33.304C253.329 31.9173 254.374 30.8507 255.718 30.104C257.062 29.3573 258.609 28.984 260.358 28.984C262.044 28.984 263.548 29.3467 264.87 30.072C266.214 30.7973 267.249 31.832 267.974 33.176C268.721 34.4987 269.094 36.024 269.094 37.752ZM264.454 36.472C264.433 35.32 264.017 34.4027 263.206 33.72C262.396 33.016 261.404 32.664 260.23 32.664C259.121 32.664 258.182 33.0053 257.414 33.688C256.668 34.3493 256.209 35.2773 256.038 36.472H264.454Z" fill="black"/>
<path d="M18.4958 0.310822C9.05389 1.8069 2.61916 7.45535 0.48503 16.157C0.097006 17.8057 0 21.1948 0 36.1556C0 52.9482 0.0323353 54.3222 0.646707 56.6426C2.71617 64.8252 8.01916 69.6188 17.3641 71.8171L20.0479 72.4277V77.374C20.0479 80.7936 20.1772 82.4118 20.4359 82.656C21.212 83.3888 22.4731 82.9919 25.5126 81.0683C27.2263 79.9997 31.0096 77.6487 33.9521 75.8168L39.2874 72.4888L44.6228 72.4277C65.091 72.1224 63.6683 72.1835 66.1257 71.3591C73.8862 68.7334 78.3162 64.2451 80.3856 56.9174C80.9677 54.9328 81 53.4062 81 36.4609C81 19.5155 80.9677 17.9584 80.3856 15.8517C78.1545 7.45535 72.0431 2.08169 62.7952 0.40242C60.8874 0.0665665 56.4252 -0.025032 40.3222 0.00550079C29.2635 0.0360336 19.4335 0.158157 18.4958 0.310822ZM44.1377 19.027C45.0431 19.2407 47.5653 20.1262 49.8287 20.9811C58.0096 24.0954 59.5617 24.187 64.8647 21.8665C66.6431 21.0727 68.5832 20.3399 69.1006 20.2483L70.103 20.0651L70.297 22.294C70.588 25.2861 71.6551 31.2704 72.4311 34.3542C72.7868 35.7281 73.0778 37.5295 73.0778 38.3539V39.8805L68.4862 42.0177L63.8946 44.1855L61.1138 41.8345C59.594 40.5522 57.1042 38.5371 55.6168 37.3768C52.7713 35.1175 50.8311 33.5603 45.9162 29.5912C44.2347 28.2477 42.521 27.057 42.1006 26.9349C41.0012 26.6906 40.3545 27.0875 36.2156 30.6598C34.1784 32.4306 32.012 34.0794 31.4299 34.3542C29.4251 35.2396 27.2263 34.0794 26.4503 31.6673C25.7713 29.5301 26.6766 28.1867 31.4946 24.187C37.606 19.0881 40.2252 18.0195 44.1377 19.027ZM15.1976 21.0116C19.1102 22.9351 20.3066 23.0573 24.7365 22.0192C28.3257 21.1643 29.8455 20.9811 30.3952 21.3475C30.7832 21.5917 30.3629 22.1108 28.0671 24.1564C25.0275 26.9043 23.9281 28.5836 23.9281 30.6598C23.9281 32.8276 25.4479 35.1785 27.5174 36.1556C28.6491 36.7051 31.1389 36.7967 32.4 36.3388C32.885 36.1861 35.0515 34.5068 37.2503 32.6444C39.5138 30.6903 41.4539 29.2858 41.7449 29.3469C42.1976 29.4385 46.6599 32.8886 53.6766 38.5981C54.5174 39.2698 56.5545 40.9186 58.2683 42.262C59.9497 43.6054 61.5988 45.1015 61.9222 45.5595C62.9569 47.1777 61.6958 49.1317 59.6263 49.1317C58.6886 49.1317 58.0743 48.8264 56.6515 47.6662C48.4707 41.0407 46.8862 40.0637 46.6275 41.6513C46.5305 42.2925 47.4683 43.178 53.2886 47.7272C55.7461 49.6813 55.9401 49.9256 55.9401 50.9942C55.9401 51.8796 55.7461 52.2765 55.0994 52.765C53.612 53.8642 52.5772 53.6199 50.3461 51.6354C45.8192 47.6356 43.297 45.7121 42.8443 45.8953C41.7126 46.2922 42.4563 47.3303 46.0778 50.4141C49.376 53.1925 49.7964 53.681 49.7964 54.5359C49.7964 55.8488 48.8263 56.7648 47.4359 56.7648C46.5305 56.7648 45.8192 56.3068 43.1353 54.0169C40.0311 51.33 38.4144 50.4751 36.9593 50.7194C36.5713 50.7805 36.3449 50.5057 36.1832 49.7424C35.8275 48.1547 33.9844 46.6892 32.3353 46.6892C31.3329 46.6892 31.0419 46.567 31.0419 46.1396C31.0419 44.6435 28.8108 42.72 27.0323 42.72C26.418 42.72 26.1593 42.4757 25.8683 41.6513C25.6743 41.1018 24.9952 40.2163 24.4132 39.6973C22.085 37.7738 18.4958 38.2317 15.9737 40.7659C15.2299 41.4987 14.5186 42.1093 14.3569 42.1093C13.8072 42.1093 8.08383 38.3539 8.08383 37.9875C8.08383 37.7738 8.43952 35.9724 8.85988 33.9878C9.63593 30.3545 10.4443 25.3472 10.8647 21.6528C11.091 19.6071 11.2204 19.1186 11.576 19.2713C11.7054 19.3323 13.3222 20.0957 15.1976 21.0116ZM23.2491 41.3766C24.4455 42.8116 24.1545 43.7275 21.9557 45.4679C20.0802 46.9334 19.6599 47.1166 18.2695 47.025C17.2994 46.9334 16.1677 45.59 16.1677 44.4908C16.1677 43.7581 16.5234 43.2085 17.7521 42.0788C19.2072 40.6743 19.4335 40.5827 20.9533 40.5827C22.3437 40.5827 22.6994 40.7049 23.2491 41.3766ZM28.5844 45.5289C29.6192 46.9029 29.2635 47.6967 26.8707 49.5592C24.3485 51.4522 23.3138 51.6964 22.085 50.5973C20.7916 49.4676 21.115 48.7348 23.7018 46.6892C26.321 44.6435 27.679 44.3076 28.5844 45.5289ZM33.5641 49.2233C33.7581 49.4065 34.0168 49.9866 34.1138 50.4446C34.3078 51.1468 34.1784 51.4522 33.1114 52.3987C30.0395 55.116 28.3257 55.7877 27.097 54.7191C26.418 54.139 26.321 52.8261 26.9353 52.1544C27.5174 51.4827 30.4599 49.2539 31.0419 49.0401C31.915 48.7348 33.2084 48.8264 33.5641 49.2233ZM38.285 53.0398C38.3497 53.162 38.285 53.9558 38.1234 54.7802C37.897 56.0015 37.5413 56.551 36.4096 57.5891C34.6311 59.2073 33.1114 59.3905 32.0443 58.1082C31.6563 57.6502 31.3653 57.1006 31.3653 56.8869C31.3653 56.6732 32.4 55.6656 33.6287 54.6275C35.4719 53.162 36.1186 52.7956 37.024 52.7956C37.606 52.7956 38.188 52.8872 38.285 53.0398ZM44.2994 58.2303C44.2994 59.2684 43.103 60.4286 42.0359 60.4286C41.5186 60.4286 40.8395 60.0622 40.1928 59.4211L39.1904 58.444L39.8695 56.4289L40.5485 54.3833L42.424 55.9404C43.782 57.0395 44.2994 57.6807 44.2994 58.2303Z" fill="#1877F2"/>
</svg>
